<?xml version="1.0" encoding="utf-8"?>
<!-- Generator: Adobe Illustrator 22.1.0, SVG Export Plug-In . SVG Version: 6.00 Build 0)  -->
<svg version="1.1" id="图层_1" xmlns="http://www.w3.org/2000/svg" xmlns:xlink="http://www.w3.org/1999/xlink" x="0px" y="0px"
	 viewBox="0 0 234 18" style="enable-background:new 0 0 234 18;" xml:space="preserve">
<style type="text/css">
	.st0{fill:url(#路径_1_);}
</style>
<title>路径</title>
<desc>Created with Sketch.</desc>
<g id="快版">
	<g id="关于我们-copy" transform="translate(-71.000000, -980.000000)">
		
			<linearGradient id="路径_1_" gradientUnits="userSpaceOnUse" x1="138.6789" y1="1037.2778" x2="137.7548" y2="1037.2778" gradientTransform="matrix(234 0 0 -18 -32154 19660)">
			<stop  offset="0" style="stop-color:#FF7793"/>
			<stop  offset="1" style="stop-color:#B254C7"/>
		</linearGradient>
		<path id="路径" class="st0" d="M259.9,987l25.5,0c0,0,0,0,0,0c0.9,0,1.7-0.5,2.1-1.3c1.3-3.3,4.6-5.7,8.4-5.7c5,0,9,4,9,9
			s-4,9-9,9c-3.8,0-7-2.3-8.4-5.7c-0.4-0.8-1.2-1.3-2.1-1.3c0,0,0,0-0.1,0h-51.1c0,0,0,0-0.1,0c-0.9,0-1.7,0.5-2.1,1.3
			c-1.3,3.3-4.6,5.7-8.4,5.7c-3.8,0-7-2.3-8.4-5.7c-0.4-0.8-1.2-1.3-2.1-1.3c0,0,0,0-0.1,0h-51.1c0,0,0,0-0.1,0
			c-0.9,0-1.7,0.5-2.1,1.3c-1.3,3.3-4.6,5.7-8.4,5.7c-3.8,0-7-2.3-8.4-5.7c-0.4-0.8-1.2-1.3-2.1-1.3c0,0,0,0-0.1,0H90.5
			c0,0,0,0-0.1,0c-0.9,0-1.7,0.5-2.1,1.3c-1.3,3.3-4.6,5.7-8.4,5.7c-5,0-9-4-9-9s4-9,9-9c3.8,0,7,2.3,8.4,5.7
			c0.4,0.8,1.2,1.3,2.1,1.3c0,0,0,0,0,0l25.4,0l25.4,0c0,0,0,0,0,0c0.9,0,1.7-0.5,2.1-1.3c1.3-3.3,4.6-5.7,8.4-5.7
			c3.8,0,7,2.3,8.4,5.7c0.4,0.8,1.2,1.3,2.1,1.3c0,0,0,0,0,0l25.5,0l25.5,0c0,0,0,0,0,0c0.9,0,1.7-0.5,2.1-1.3
			c1.3-3.3,4.6-5.7,8.4-5.7c3.8,0,7,2.3,8.4,5.7c0.4,0.8,1.2,1.3,2.1,1.3c0,0,0,0,0,0L259.9,987z"/>
	</g>
</g>
</svg>
